<svg xmlns="http://www.w3.org/2000/svg" viewBox="0 0 64 64">
  <!-- Dark background -->
  <rect width="64" height="64" rx="4" fill="#1a1a2e"/>
  <rect x="2" y="2" width="60" height="60" rx="3" fill="#0d0d17" stroke="#2a2a44" stroke-width="1"/>
  
  <!-- Glow effect -->
  <defs>
    <radialGradient id="healGlow" cx="50%" cy="50%" r="50%">
      <stop offset="0%" stop-color="#80ffa0" stop-opacity="0.4"/>
      <stop offset="100%" stop-color="#40ff80" stop-opacity="0"/>
    </radialGradient>
  </defs>
  <circle cx="32" cy="32" r="22" fill="url(#healGlow)"/>
  
  <!-- Main cross -->
  <path d="M28 14 L36 14 L36 28 L50 28 L50 36 L36 36 L36 50 L28 50 L28 36 L14 36 L14 28 L28 28 Z" 
        fill="#40dd70" stroke="#60ff90" stroke-width="1.5"/>
  
  <!-- Inner highlight -->
  <path d="M30 18 L34 18 L34 28 L46 28 L46 36 L34 36 L34 46 L30 46 L30 36 L18 36 L18 28 L30 28 Z" 
        fill="#70ffa0" opacity="0.7"/>
  
  <!-- Center glow -->
  <circle cx="32" cy="32" r="4" fill="#a0ffb0" opacity="0.9"/>
  
  <!-- Sparkle particles -->
  <circle cx="20" cy="20" r="1.5" fill="#80ffa0" opacity="0.6"/>
  <circle cx="44" cy="20" r="1.5" fill="#80ffa0" opacity="0.6"/>
  <circle cx="20" cy="44" r="1.5" fill="#80ffa0" opacity="0.6"/>
  <circle cx="44" cy="44" r="1.5" fill="#80ffa0" opacity="0.6"/>
</svg>
