<svg xmlns="http://www.w3.org/2000/svg" viewBox="0 0 32 32">
  <defs>
    <!-- Main gold gradient -->
    <linearGradient id="gold" x1="0%" y1="0%" x2="100%" y2="100%">
      <stop offset="0%" stop-color="#ffd700"/>
      <stop offset="30%" stop-color="#ffb347"/>
      <stop offset="70%" stop-color="#cc8800"/>
      <stop offset="100%" stop-color="#8b6914"/>
    </linearGradient>
    
    <!-- Inner orb glow -->
    <radialGradient id="orbGlow" cx="50%" cy="40%" r="50%">
      <stop offset="0%" stop-color="#ff6b35"/>
      <stop offset="60%" stop-color="#cc3300"/>
      <stop offset="100%" stop-color="#661100"/>
    </radialGradient>
    
    <!-- Background gradient -->
    <radialGradient id="bg" cx="50%" cy="30%" r="70%">
      <stop offset="0%" stop-color="#2a2040"/>
      <stop offset="100%" stop-color="#0d0a15"/>
    </radialGradient>
    
    <!-- Outer glow filter -->
    <filter id="glow" x="-50%" y="-50%" width="200%" height="200%">
      <feGaussianBlur in="SourceGraphic" stdDeviation="1" result="blur"/>
      <feComposite in="SourceGraphic" in2="blur" operator="over"/>
    </filter>
    
    <!-- Inner shadow -->
    <filter id="innerShadow">
      <feOffset dx="0" dy="1"/>
      <feGaussianBlur stdDeviation="0.5"/>
      <feComposite operator="out" in="SourceGraphic"/>
      <feColorMatrix type="matrix" values="0 0 0 0 0  0 0 0 0 0  0 0 0 0 0  0 0 0 0.5 0"/>
      <feBlend in="SourceGraphic" mode="normal"/>
    </filter>
  </defs>
  
  <!-- Background -->
  <rect width="32" height="32" rx="6" fill="url(#bg)"/>
  
  <!-- Decorative border -->
  <rect x="1" y="1" width="30" height="30" rx="5" fill="none" stroke="url(#gold)" stroke-width="1.5" stroke-opacity="0.6"/>
  <rect x="2.5" y="2.5" width="27" height="27" rx="4" fill="none" stroke="#ffd700" stroke-width="0.5" stroke-opacity="0.2"/>
  
  <!-- Central orb/gem -->
  <circle cx="16" cy="14" r="7" fill="url(#orbGlow)" filter="url(#glow)"/>
  <ellipse cx="16" cy="12" rx="3" ry="2" fill="rgba(255,255,255,0.3)"/>
  <circle cx="16" cy="14" r="7" fill="none" stroke="url(#gold)" stroke-width="1.5"/>
  
  <!-- Wizard staff/wand behind orb -->
  <line x1="16" y1="21" x2="16" y2="28" stroke="url(#gold)" stroke-width="2" stroke-linecap="round"/>
  <circle cx="16" cy="21" r="1.5" fill="url(#gold)"/>
  
  <!-- Corner accents -->
  <path d="M4 8 L4 4 L8 4" fill="none" stroke="url(#gold)" stroke-width="1" stroke-opacity="0.5" stroke-linecap="round"/>
  <path d="M28 8 L28 4 L24 4" fill="none" stroke="url(#gold)" stroke-width="1" stroke-opacity="0.5" stroke-linecap="round"/>
  <path d="M4 24 L4 28 L8 28" fill="none" stroke="url(#gold)" stroke-width="1" stroke-opacity="0.5" stroke-linecap="round"/>
  <path d="M28 24 L28 28 L24 28" fill="none" stroke="url(#gold)" stroke-width="1" stroke-opacity="0.5" stroke-linecap="round"/>
  
  <!-- Subtle magical particles -->
  <circle cx="8" cy="16" r="0.8" fill="#ffd700" opacity="0.6"/>
  <circle cx="24" cy="16" r="0.8" fill="#ffd700" opacity="0.6"/>
  <circle cx="10" cy="10" r="0.5" fill="#ff6b35" opacity="0.5"/>
  <circle cx="22" cy="10" r="0.5" fill="#ff6b35" opacity="0.5"/>
</svg>
